<?xml version="1.0" encoding="UTF-8"?>
<svg id="Layer_2" data-name="Layer 2" xmlns="http://www.w3.org/2000/svg" xmlns:xlink="http://www.w3.org/1999/xlink" viewBox="0 0 136.68 83.57">
  <defs>
    <style>
      .cls-1 {
        fill: none;
      }

      .cls-2 {
        fill: #f93231;
      }

      .cls-3 {
        fill: #f1ead0;
      }

      .cls-4 {
        fill: url(#New_Pattern_Swatch_1);
      }
    </style>
    <pattern id="New_Pattern_Swatch_1" data-name="New Pattern Swatch 1" x="0" y="0" width="159.73" height="133" patternTransform="translate(-302.66 141.78)" patternUnits="userSpaceOnUse" viewBox="0 0 159.73 133">
      <g>
        <rect class="cls-1" width="159.73" height="133"/>
        <rect class="cls-3" width="159.73" height="133"/>
      </g>
    </pattern>
  </defs>
  <g id="Layer_1-2" data-name="Layer 1">
    <g>
      <g>
        <path class="cls-2" d="m12.41,74.36c-1.53-1.16-2.72-2.47-3.57-3.94-.86-1.47-1.28-2.93-1.28-4.4,0-1.65.52-3.05,1.56-4.22,1.04-1.16,2.47-1.74,4.31-1.74,1.22,0,2.23.28,3.02.83.79.55,1.56,1.31,2.29,2.29.85,1.04,1.54,1.79,2.06,2.25.52.46,1.18.69,1.97.69,1.04,0,1.91-.47,2.61-1.42.7-.95,1.33-2.7,1.88-5.27.55-2.57,1.01-6.29,1.37-11.18.37-3.73,1.01-12.74,1.92-27.03-3.48-.61-6.11-.92-7.88-.92-1.22,0-2.17.28-2.84.82-.67.55-1.01,1.19-1.01,1.92s.21,1.37.64,1.92c.43.55,1.07,1.16,1.92,1.83,1.28,1.04,2.26,1.99,2.93,2.84.67.86,1.01,1.92,1.01,3.21,0,1.65-.52,2.99-1.56,4.03-1.04,1.04-2.38,1.56-4.03,1.56-2.93,0-5.86-1.38-8.8-4.12-3.3-3.05-4.95-6.66-4.95-10.81,0-4.46,1.57-8.02,4.72-10.68,3.15-2.66,7.44-3.99,12.88-3.99,2.02,0,4.05.17,6.09.5,2.05.34,4.78.87,8.2,1.6.55.12,1.7.35,3.44.69,1.74.34,3.28.6,4.63.78,1.34.18,2.57.28,3.67.28,1.53,0,2.7-.29,3.53-.87.83-.58,1.66-1.45,2.52-2.61.85-1.1,1.63-1.91,2.34-2.43.7-.52,1.7-.78,2.98-.78,1.4,0,2.57.49,3.48,1.47.91.98,1.37,2.23,1.37,3.76,0,3.73-1.28,6.8-3.85,9.21-2.57,2.41-5.93,3.62-10.08,3.62-2.51,0-5.38-.24-8.61-.73-1.22,16.92-2.02,27.4-2.38,31.43-.67,7.64-2.46,13.35-5.36,17.14-2.9,3.79-7.04,5.68-12.42,5.68-4.22,0-7.79-1.07-10.72-3.21Z"/>
        <path class="cls-4" d="m60.98,6c1.4,0,2.57.49,3.48,1.47.91.98,1.37,2.23,1.37,3.76,0,3.73-1.28,6.8-3.85,9.21-2.57,2.41-5.93,3.62-10.08,3.62-2.51,0-5.38-.24-8.61-.73-1.22,16.92-2.02,27.4-2.38,31.43-.67,7.64-2.46,13.35-5.36,17.14-2.9,3.79-7.04,5.68-12.42,5.68-4.22,0-7.79-1.07-10.72-3.21-1.53-1.16-2.72-2.47-3.57-3.94-.86-1.47-1.28-2.93-1.28-4.4,0-1.65.52-3.05,1.56-4.22,1.04-1.16,2.47-1.74,4.31-1.74,1.22,0,2.23.28,3.02.83.79.55,1.56,1.31,2.29,2.29.85,1.04,1.54,1.79,2.06,2.25.52.46,1.18.69,1.97.69,1.04,0,1.91-.47,2.61-1.42.7-.95,1.33-2.7,1.88-5.27.55-2.57,1.01-6.29,1.37-11.18.37-3.73,1.01-12.74,1.92-27.03-3.48-.61-6.11-.92-7.88-.92-1.22,0-2.17.27-2.84.82-.67.55-1.01,1.19-1.01,1.92s.21,1.37.64,1.92c.43.55,1.07,1.16,1.92,1.83,1.28,1.04,2.26,1.99,2.93,2.84.67.86,1.01,1.92,1.01,3.21,0,1.65-.52,2.99-1.56,4.03-1.04,1.04-2.38,1.56-4.03,1.56-2.93,0-5.86-1.38-8.8-4.12-3.3-3.05-4.95-6.66-4.95-10.81,0-4.46,1.57-8.02,4.72-10.68,3.15-2.66,7.44-3.99,12.88-3.99,2.02,0,4.05.17,6.09.5,2.05.34,4.78.87,8.2,1.6.55.12,1.7.35,3.44.69,1.74.34,3.28.6,4.63.78,1.34.18,2.57.28,3.67.28,1.53,0,2.7-.29,3.53-.87.83-.58,1.66-1.45,2.52-2.61.85-1.1,1.63-1.91,2.34-2.43.7-.52,1.7-.78,2.98-.78m0-6c-2.59,0-4.79.66-6.54,1.95-1.16.86-2.31,2.03-3.51,3.57l-.05.06-.04.06c-.38.52-.68.84-.87,1.03-.09,0-.2.01-.35.01-.82,0-1.78-.07-2.85-.22-1.23-.17-2.68-.41-4.3-.72-2.1-.4-2.93-.58-3.26-.65h-.03s-.03-.01-.03-.01c-3.5-.75-6.35-1.31-8.48-1.66-2.37-.39-4.74-.58-7.07-.58-6.87,0-12.5,1.82-16.75,5.4C2.37,12.03,0,17.3,0,23.5c0,5.79,2.38,11.05,6.87,15.22,4.04,3.79,8.38,5.72,12.87,5.72,1.13,0,2.21-.14,3.23-.41-.12,1.53-.23,2.74-.31,3.63v.07s-.01.07-.01.07c-.31,4.07-.67,7.28-1.09,9.55-.55-.52-1.11-.98-1.69-1.38-1.82-1.26-3.98-1.89-6.44-1.89-4.49,0-7.25,2.03-8.78,3.74-2.02,2.25-3.09,5.1-3.09,8.22,0,2.54.71,5.04,2.1,7.42,1.25,2.14,2.98,4.06,5.13,5.69l.05.03.05.03c3.97,2.89,8.76,4.36,14.26,4.36,7.21,0,13.15-2.78,17.18-8.03,3.64-4.76,5.79-11.38,6.57-20.26.32-3.53.96-11.85,1.94-25.32,1.07.07,2.1.1,3.08.1,5.71,0,10.49-1.77,14.19-5.25,3.75-3.53,5.74-8.23,5.74-13.58,0-3.05-1.03-5.77-2.99-7.86-2.07-2.21-4.79-3.37-7.86-3.37h0Z"/>
      </g>
      <g>
        <path class="cls-2" d="m77.25,74.36c-1.53-1.16-2.72-2.47-3.57-3.94-.86-1.47-1.28-2.93-1.28-4.4,0-1.65.52-3.05,1.56-4.22,1.04-1.16,2.47-1.74,4.31-1.74,1.22,0,2.23.28,3.03.83.79.55,1.56,1.31,2.29,2.29.86,1.04,1.54,1.79,2.06,2.25.52.46,1.18.69,1.97.69,1.04,0,1.91-.47,2.61-1.42.7-.95,1.33-2.7,1.88-5.27.55-2.57,1.01-6.29,1.38-11.18.36-3.73,1.01-12.74,1.93-27.03-3.48-.61-6.11-.92-7.88-.92-1.22,0-2.17.28-2.84.82-.67.55-1.01,1.19-1.01,1.92s.21,1.37.64,1.92c.43.55,1.07,1.16,1.92,1.83,1.28,1.04,2.26,1.99,2.93,2.84s1.01,1.92,1.01,3.21c0,1.65-.52,2.99-1.56,4.03-1.04,1.04-2.38,1.56-4.03,1.56-2.93,0-5.86-1.38-8.8-4.12-3.3-3.05-4.95-6.66-4.95-10.81,0-4.46,1.57-8.02,4.72-10.68s7.44-3.99,12.88-3.99c2.02,0,4.05.17,6.09.5,2.05.34,4.78.87,8.2,1.6.55.12,1.7.35,3.44.69,1.74.34,3.28.6,4.63.78s2.57.28,3.67.28c1.53,0,2.71-.29,3.53-.87.82-.58,1.66-1.45,2.52-2.61.86-1.1,1.63-1.91,2.34-2.43.7-.52,1.7-.78,2.98-.78,1.41,0,2.57.49,3.48,1.47.92.98,1.38,2.23,1.38,3.76,0,3.73-1.28,6.8-3.85,9.21-2.57,2.41-5.93,3.62-10.08,3.62-2.51,0-5.38-.24-8.62-.73-1.22,16.92-2.02,27.4-2.38,31.43-.67,7.64-2.46,13.35-5.36,17.14s-7.04,5.68-12.42,5.68c-4.22,0-7.79-1.07-10.72-3.21Z"/>
        <path class="cls-4" d="m125.82,6c1.41,0,2.57.49,3.48,1.47.92.98,1.38,2.23,1.38,3.76,0,3.73-1.28,6.8-3.85,9.21-2.57,2.41-5.93,3.62-10.08,3.62-2.51,0-5.38-.24-8.62-.73-1.22,16.92-2.02,27.4-2.38,31.43-.67,7.64-2.46,13.35-5.36,17.14-2.9,3.79-7.04,5.68-12.42,5.68-4.22,0-7.79-1.07-10.72-3.21-1.53-1.16-2.72-2.47-3.57-3.94-.86-1.47-1.28-2.93-1.28-4.4,0-1.65.52-3.05,1.56-4.22,1.04-1.16,2.47-1.74,4.31-1.74,1.22,0,2.23.28,3.03.83.79.55,1.56,1.31,2.29,2.29.86,1.04,1.54,1.79,2.06,2.25.52.46,1.18.69,1.97.69,1.04,0,1.91-.47,2.61-1.42.7-.95,1.33-2.7,1.88-5.27.55-2.57,1.01-6.29,1.38-11.18.36-3.73,1.01-12.74,1.93-27.03-3.48-.61-6.11-.92-7.88-.92-1.22,0-2.17.27-2.84.82-.67.55-1.01,1.19-1.01,1.92s.21,1.37.64,1.92c.43.55,1.07,1.16,1.92,1.83,1.28,1.04,2.26,1.99,2.93,2.84s1.01,1.92,1.01,3.21c0,1.65-.52,2.99-1.56,4.03-1.04,1.04-2.38,1.56-4.03,1.56-2.93,0-5.86-1.38-8.8-4.12-3.3-3.05-4.95-6.66-4.95-10.81,0-4.46,1.57-8.02,4.72-10.68,3.15-2.66,7.44-3.99,12.88-3.99,2.02,0,4.05.17,6.09.5,2.05.34,4.78.87,8.2,1.6.55.12,1.7.35,3.44.69,1.74.34,3.28.6,4.63.78,1.34.18,2.57.28,3.67.28,1.53,0,2.71-.29,3.53-.87.82-.58,1.66-1.45,2.52-2.61.86-1.1,1.63-1.91,2.34-2.43.7-.52,1.7-.78,2.98-.78m0-6c-2.59,0-4.79.66-6.55,1.96-1.15.85-2.3,2.02-3.5,3.57l-.05.06-.05.07c-.38.51-.67.84-.87,1.03-.09,0-.2.01-.35.01-.82,0-1.78-.07-2.85-.22-1.23-.17-2.68-.41-4.3-.72-2.1-.4-2.93-.58-3.26-.65h-.03s-.03-.01-.03-.01c-3.49-.75-6.35-1.31-8.49-1.66-2.37-.39-4.74-.58-7.07-.58-6.87,0-12.5,1.82-16.75,5.4-4.48,3.78-6.85,9.06-6.85,15.26,0,5.79,2.38,11.06,6.87,15.22,4.04,3.79,8.38,5.72,12.87,5.72,1.13,0,2.21-.14,3.23-.41-.12,1.53-.23,2.74-.31,3.63v.07s-.01.07-.01.07c-.31,4.08-.67,7.28-1.09,9.55-.55-.52-1.11-.98-1.69-1.38-1.82-1.26-3.99-1.89-6.44-1.89-4.49,0-7.25,2.04-8.78,3.74-2.02,2.25-3.08,5.09-3.08,8.21,0,2.54.71,5.04,2.1,7.43,1.25,2.14,2.97,4.06,5.13,5.69l.04.03.05.03c3.97,2.89,8.76,4.36,14.26,4.36,7.21,0,13.15-2.78,17.18-8.03,3.64-4.76,5.79-11.38,6.57-20.26.32-3.53.96-11.84,1.94-25.32,1.07.07,2.1.1,3.08.1,5.71,0,10.49-1.77,14.19-5.25,3.75-3.53,5.74-8.23,5.74-13.58,0-3.05-1.04-5.77-3-7.86-2.06-2.2-4.78-3.36-7.86-3.36h0Z"/>
      </g>
    </g>
  </g>
</svg>